<svg width="70" height="70" viewBox="0 0 70 70" fill="none" xmlns="http://www.w3.org/2000/svg">
<rect width="70" height="70" rx="4" fill="black"></rect>
<path d="M9.76634 44.4659L9.78338 35.7557H10.8402L19.2266 25.8182H27.5618L16.2947 38.9773H14.5732L9.76634 44.4659ZM3.18679 52V17.0909H10.4482V52H3.18679ZM19.5504 52L11.8459 40.5966L16.6868 35.4659L28.0561 52H19.5504ZM52.9084 33.2841L46.2607 33.6932C46.147 33.125 45.9027 32.6136 45.5277 32.1591C45.1527 31.6932 44.6584 31.3239 44.0447 31.0511C43.4425 30.767 42.7209 30.625 41.88 30.625C40.755 30.625 39.8061 30.8636 39.0334 31.3409C38.2607 31.8068 37.8743 32.4318 37.8743 33.2159C37.8743 33.8409 38.1243 34.3693 38.6243 34.8011C39.1243 35.233 39.9822 35.5795 41.1982 35.8409L45.9368 36.7955C48.4822 37.3182 50.38 38.1591 51.63 39.3182C52.88 40.4773 53.505 42 53.505 43.8864C53.505 45.6023 52.9993 47.108 51.9879 48.4034C50.9879 49.6989 49.6129 50.7102 47.8629 51.4375C46.1243 52.1534 44.1186 52.5114 41.8459 52.5114C38.38 52.5114 35.6186 51.7898 33.5618 50.3466C31.5163 48.892 30.3175 46.9148 29.9652 44.4148L37.1072 44.0398C37.3232 45.0966 37.8459 45.9034 38.6754 46.4602C39.505 47.0057 40.5675 47.2784 41.8629 47.2784C43.1357 47.2784 44.1584 47.0341 44.9311 46.5455C45.7152 46.0455 46.1129 45.4034 46.1243 44.6193C46.1129 43.9602 45.8345 43.4205 45.2891 43C44.7436 42.5682 43.9027 42.2386 42.7663 42.0114L38.2322 41.108C35.6754 40.5966 33.772 39.7102 32.522 38.4489C31.2834 37.1875 30.6641 35.5795 30.6641 33.625C30.6641 31.9432 31.1186 30.4943 32.0277 29.2784C32.9482 28.0625 34.2379 27.125 35.897 26.4659C37.5675 25.8068 39.522 25.4773 41.7607 25.4773C45.0675 25.4773 47.6697 26.1761 49.5675 27.5739C51.4766 28.9716 52.5902 30.875 52.9084 33.2841ZM65.9695 47.2273L65.782 49.1023C65.6342 50.6023 65.3501 52.0966 64.9297 53.5852C64.5206 55.0852 64.0888 56.4432 63.6342 57.6591C63.1911 58.875 62.8331 59.8295 62.5604 60.5227H57.8558C58.0263 59.8523 58.2592 58.9148 58.5547 57.7102C58.8501 56.517 59.1286 55.1761 59.3899 53.6875C59.6513 52.1989 59.8161 50.6818 59.8842 49.1364L59.9695 47.2273H65.9695ZM62.9354 34.1023C61.8104 34.1023 60.8445 33.7045 60.0376 32.9091C59.2422 32.1136 58.8445 31.1477 58.8445 30.0114C58.8445 28.8977 59.2422 27.9489 60.0376 27.1648C60.8445 26.3693 61.8104 25.9716 62.9354 25.9716C64.0263 25.9716 64.9808 26.3693 65.799 27.1648C66.6172 27.9489 67.0263 28.8977 67.0263 30.0114C67.0263 30.7727 66.8331 31.4659 66.4467 32.0909C66.0717 32.7045 65.5774 33.1932 64.9638 33.5568C64.3501 33.9205 63.674 34.1023 62.9354 34.1023Z" fill="white"></path>
</svg>