<svg width="240" height="240" viewBox="0 0 240 240" fill="none" xmlns="http://www.w3.org/2000/svg">
<rect width="240" height="240" fill="black"></rect>
<path d="M40.0696 99.995L40.0877 90.7404H41.2106L50.1211 80.1818H58.9773L47.006 94.1634H45.1768L40.0696 99.995ZM33.0788 108V70.9091H40.794V108H33.0788ZM50.4652 108L42.2791 95.8839L47.4226 90.4325L59.5025 108H50.4652ZM62.7624 108V80.1818H70.4776V108H62.7624ZM66.6381 76.5959C65.4911 76.5959 64.5071 76.2156 63.6861 75.4549C62.8771 74.6822 62.4727 73.7585 62.4727 72.6839C62.4727 71.6214 62.8771 70.7099 63.6861 69.9492C64.5071 69.1765 65.4911 68.7901 66.6381 68.7901C67.7852 68.7901 68.7631 69.1765 69.5721 69.9492C70.3931 70.7099 70.8036 71.6214 70.8036 72.6839C70.8036 73.7585 70.3931 74.6822 69.5721 75.4549C68.7631 76.2156 67.7852 76.5959 66.6381 76.5959ZM76.6579 108V80.1818H84.0109V85.0898H84.3369C84.9165 83.4599 85.8824 82.174 87.2346 81.2322C88.5869 80.2905 90.2048 79.8196 92.0883 79.8196C93.996 79.8196 95.6199 80.2965 96.9601 81.2504C98.3003 82.1921 99.1938 83.4719 99.6405 85.0898H99.9303C100.498 83.4961 101.524 82.2223 103.009 81.2685C104.506 80.3026 106.275 79.8196 108.316 79.8196C110.911 79.8196 113.018 80.6467 114.636 82.3008C116.266 83.9428 117.081 86.2731 117.081 89.2915V108H109.384V90.8129C109.384 89.2674 108.974 88.1083 108.153 87.3356C107.332 86.5629 106.305 86.1765 105.074 86.1765C103.673 86.1765 102.581 86.6232 101.796 87.5167C101.011 88.3981 100.619 89.5632 100.619 91.0121V108H93.1388V90.6499C93.1388 89.2855 92.7464 88.1989 91.9616 87.3899C91.1888 86.581 90.1686 86.1765 88.9008 86.1765C88.0436 86.1765 87.2709 86.3938 86.5827 86.8285C85.9065 87.2511 85.3692 87.8487 84.9708 88.6214C84.5724 89.3821 84.3731 90.2756 84.3731 91.3018V108H76.6579ZM135.744 108.543C132.931 108.543 130.498 107.946 128.446 106.75C126.405 105.543 124.83 103.865 123.719 101.716C122.608 99.5543 122.053 97.049 122.053 94.1996C122.053 91.326 122.608 88.8146 123.719 86.6655C124.83 84.5043 126.405 82.826 128.446 81.6307C130.498 80.4233 132.931 79.8196 135.744 79.8196C138.558 79.8196 140.984 80.4233 143.025 81.6307C145.078 82.826 146.659 84.5043 147.77 86.6655C148.881 88.8146 149.436 91.326 149.436 94.1996C149.436 97.049 148.881 99.5543 147.77 101.716C146.659 103.865 145.078 105.543 143.025 106.75C140.984 107.946 138.558 108.543 135.744 108.543ZM135.781 102.567C137.06 102.567 138.129 102.205 138.986 101.48C139.843 100.744 140.489 99.7415 140.924 98.4737C141.371 97.206 141.594 95.7631 141.594 94.1452C141.594 92.5273 141.371 91.0845 140.924 89.8168C140.489 88.549 139.843 87.5469 138.986 86.8104C138.129 86.0739 137.06 85.7056 135.781 85.7056C134.489 85.7056 133.402 86.0739 132.521 86.8104C131.651 87.5469 130.993 88.549 130.547 89.8168C130.112 91.0845 129.895 92.5273 129.895 94.1452C129.895 95.7631 130.112 97.206 130.547 98.4737C130.993 99.7415 131.651 100.744 132.521 101.48C133.402 102.205 134.489 102.567 135.781 102.567ZM159.904 80.1818L165.011 89.9073L170.245 80.1818H178.16L170.101 94.0909L178.377 108H170.499L165.011 98.3832L159.614 108H151.646L159.904 94.0909L151.935 80.1818H159.904ZM56.2244 150.114L49.1612 150.549C49.0405 149.945 48.7809 149.402 48.3825 148.919C47.984 148.424 47.4588 148.032 46.8068 147.742C46.1669 147.44 45.4002 147.289 44.5067 147.289C43.3114 147.289 42.3033 147.543 41.4822 148.05C40.6612 148.545 40.2507 149.209 40.2507 150.042C40.2507 150.706 40.5163 151.267 41.0476 151.726C41.5788 152.185 42.4904 152.553 43.7823 152.831L48.8171 153.845C51.5217 154.401 53.538 155.294 54.8661 156.526C56.1942 157.757 56.8583 159.375 56.8583 161.379C56.8583 163.202 56.321 164.802 55.2465 166.179C54.184 167.555 52.723 168.63 50.8636 169.402C49.0163 170.163 46.8853 170.543 44.4705 170.543C40.788 170.543 37.854 169.777 35.6687 168.243C33.4954 166.698 32.2216 164.597 31.8473 161.941L39.4357 161.542C39.6651 162.665 40.2205 163.522 41.1019 164.114C41.9833 164.694 43.1122 164.983 44.4886 164.983C45.8409 164.983 46.9276 164.724 47.7486 164.205C48.5817 163.673 49.0043 162.991 49.0163 162.158C49.0043 161.458 48.7085 160.884 48.1289 160.438C47.5494 159.979 46.6559 159.629 45.4485 159.387L40.631 158.427C37.9144 157.884 35.892 156.942 34.5639 155.602C33.2479 154.262 32.5898 152.553 32.5898 150.477C32.5898 148.69 33.0728 147.15 34.0387 145.858C35.0167 144.566 36.3871 143.57 38.1499 142.87C39.9247 142.17 42.0014 141.82 44.38 141.82C47.8935 141.82 50.6584 142.562 52.6747 144.047C54.7031 145.532 55.8864 147.555 56.2244 150.114ZM76.5131 142.182V147.977H59.7606V142.182H76.5131ZM63.5638 135.517H71.279V161.452C71.279 162.164 71.3877 162.719 71.605 163.118C71.8224 163.504 72.1242 163.776 72.5106 163.933C72.909 164.09 73.3678 164.168 73.887 164.168C74.2492 164.168 74.6114 164.138 74.9736 164.078C75.3358 164.005 75.6135 163.951 75.8067 163.915L77.0202 169.656C76.6338 169.777 76.0905 169.915 75.3902 170.072C74.6899 170.241 73.8387 170.344 72.8366 170.38C70.9772 170.453 69.3472 170.205 67.9466 169.638C66.5582 169.07 65.4775 168.189 64.7048 166.994C63.9321 165.798 63.5518 164.289 63.5638 162.466V135.517ZM99.3779 158.156V142.182H107.093V170H99.6858V164.947H99.396C98.7682 166.577 97.7238 167.887 96.2629 168.877C94.814 169.867 93.0452 170.362 90.9564 170.362C89.097 170.362 87.461 169.94 86.0484 169.094C84.6357 168.249 83.531 167.048 82.7341 165.49C81.9493 163.933 81.5509 162.067 81.5388 159.894V142.182H89.254V158.518C89.2661 160.16 89.7068 161.458 90.5761 162.412C91.4454 163.365 92.6105 163.842 94.0715 163.842C95.0012 163.842 95.8705 163.631 96.6794 163.208C97.4884 162.774 98.1404 162.134 98.6354 161.289C99.1425 160.444 99.39 159.399 99.3779 158.156ZM123.515 170.453C121.402 170.453 119.488 169.909 117.774 168.823C116.072 167.724 114.719 166.112 113.717 163.987C112.727 161.85 112.232 159.23 112.232 156.127C112.232 152.94 112.745 150.289 113.771 148.176C114.798 146.051 116.162 144.464 117.865 143.413C119.579 142.351 121.456 141.82 123.497 141.82C125.055 141.82 126.352 142.085 127.391 142.616C128.441 143.136 129.286 143.788 129.926 144.572C130.578 145.345 131.073 146.106 131.411 146.854H131.647V132.909H139.344V170H131.737V165.545H131.411C131.049 166.317 130.536 167.084 129.872 167.845C129.22 168.593 128.369 169.215 127.318 169.71C126.28 170.205 125.012 170.453 123.515 170.453ZM125.96 164.313C127.204 164.313 128.254 163.975 129.111 163.299C129.981 162.611 130.645 161.651 131.104 160.419C131.574 159.188 131.81 157.745 131.81 156.091C131.81 154.437 131.58 153 131.122 151.781C130.663 150.561 129.999 149.619 129.129 148.955C128.26 148.291 127.204 147.959 125.96 147.959C124.692 147.959 123.624 148.303 122.754 148.991C121.885 149.68 121.227 150.634 120.78 151.853C120.334 153.072 120.11 154.485 120.11 156.091C120.11 157.709 120.334 159.14 120.78 160.383C121.239 161.615 121.897 162.581 122.754 163.281C123.624 163.969 124.692 164.313 125.96 164.313ZM145.687 170V142.182H153.402V170H145.687ZM149.563 138.596C148.416 138.596 147.432 138.216 146.611 137.455C145.802 136.682 145.397 135.759 145.397 134.684C145.397 133.621 145.802 132.71 146.611 131.949C147.432 131.176 148.416 130.79 149.563 130.79C150.71 130.79 151.688 131.176 152.497 131.949C153.318 132.71 153.728 133.621 153.728 134.684C153.728 135.759 153.318 136.682 152.497 137.455C151.688 138.216 150.71 138.596 149.563 138.596ZM172.152 170.543C169.338 170.543 166.906 169.946 164.853 168.75C162.813 167.543 161.237 165.865 160.126 163.716C159.015 161.554 158.46 159.049 158.46 156.2C158.46 153.326 159.015 150.815 160.126 148.665C161.237 146.504 162.813 144.826 164.853 143.631C166.906 142.423 169.338 141.82 172.152 141.82C174.965 141.82 177.392 142.423 179.432 143.631C181.485 144.826 183.066 146.504 184.177 148.665C185.288 150.815 185.843 153.326 185.843 156.2C185.843 159.049 185.288 161.554 184.177 163.716C183.066 165.865 181.485 167.543 179.432 168.75C177.392 169.946 174.965 170.543 172.152 170.543ZM172.188 164.567C173.468 164.567 174.536 164.205 175.393 163.48C176.251 162.744 176.897 161.741 177.331 160.474C177.778 159.206 178.001 157.763 178.001 156.145C178.001 154.527 177.778 153.085 177.331 151.817C176.897 150.549 176.251 149.547 175.393 148.81C174.536 148.074 173.468 147.706 172.188 147.706C170.896 147.706 169.809 148.074 168.928 148.81C168.059 149.547 167.401 150.549 166.954 151.817C166.519 153.085 166.302 154.527 166.302 156.145C166.302 157.763 166.519 159.206 166.954 160.474C167.401 161.741 168.059 162.744 168.928 163.48C169.809 164.205 170.896 164.567 172.188 164.567ZM199.245 164.929L199.046 166.921C198.889 168.515 198.587 170.103 198.141 171.684C197.706 173.278 197.247 174.721 196.764 176.013C196.293 177.305 195.913 178.319 195.623 179.055H190.625C190.806 178.343 191.053 177.347 191.367 176.067C191.681 174.799 191.977 173.375 192.255 171.793C192.532 170.211 192.707 168.599 192.78 166.957L192.87 164.929H199.245ZM196.022 150.984C194.826 150.984 193.8 150.561 192.943 149.716C192.098 148.871 191.675 147.844 191.675 146.637C191.675 145.454 192.098 144.446 192.943 143.613C193.8 142.767 194.826 142.345 196.022 142.345C197.181 142.345 198.195 142.767 199.064 143.613C199.934 144.446 200.368 145.454 200.368 146.637C200.368 147.446 200.163 148.183 199.752 148.847C199.354 149.499 198.829 150.018 198.177 150.404C197.525 150.79 196.806 150.984 196.022 150.984Z" fill="white"></path>
</svg>