<svg width="1124" height="240" viewBox="0 0 1124 240" fill="none" xmlns="http://www.w3.org/2000/svg">
<rect width="1124" height="240" fill="black"></rect>
<path d="M494.896 99.995L494.914 90.7404H496.037L504.948 80.1818H513.804L501.833 94.1634H500.004L494.896 99.995ZM487.906 108V70.9091H495.621V108H487.906ZM505.292 108L497.106 95.8839L502.249 90.4325L514.329 108H505.292ZM517.589 108V80.1818H525.304V108H517.589ZM521.465 76.5959C520.318 76.5959 519.334 76.2156 518.513 75.4549C517.704 74.6822 517.299 73.7585 517.299 72.6839C517.299 71.6214 517.704 70.7099 518.513 69.9492C519.334 69.1765 520.318 68.7901 521.465 68.7901C522.612 68.7901 523.59 69.1765 524.399 69.9492C525.22 70.7099 525.63 71.6214 525.63 72.6839C525.63 73.7585 525.22 74.6822 524.399 75.4549C523.59 76.2156 522.612 76.5959 521.465 76.5959ZM531.485 108V80.1818H538.838V85.0898H539.164C539.743 83.4599 540.709 82.174 542.061 81.2322C543.414 80.2905 545.032 79.8196 546.915 79.8196C548.823 79.8196 550.447 80.2965 551.787 81.2504C553.127 82.1921 554.021 83.4719 554.467 85.0898H554.757C555.325 83.4961 556.351 82.2223 557.836 81.2685C559.333 80.3026 561.102 79.8196 563.142 79.8196C565.738 79.8196 567.845 80.6467 569.463 82.3008C571.093 83.9428 571.908 86.2731 571.908 89.2915V108H564.211V90.8129C564.211 89.2674 563.8 88.1083 562.979 87.3356C562.158 86.5629 561.132 86.1765 559.901 86.1765C558.5 86.1765 557.407 86.6232 556.623 87.5167C555.838 88.3981 555.445 89.5632 555.445 91.0121V108H547.966V90.6499C547.966 89.2855 547.573 88.1989 546.788 87.3899C546.016 86.581 544.995 86.1765 543.728 86.1765C542.87 86.1765 542.098 86.3938 541.409 86.8285C540.733 87.2511 540.196 87.8487 539.798 88.6214C539.399 89.3821 539.2 90.2756 539.2 91.3018V108H531.485ZM590.571 108.543C587.758 108.543 585.325 107.946 583.273 106.75C581.232 105.543 579.656 103.865 578.546 101.716C577.435 99.5543 576.879 97.049 576.879 94.1996C576.879 91.326 577.435 88.8146 578.546 86.6655C579.656 84.5043 581.232 82.826 583.273 81.6307C585.325 80.4233 587.758 79.8196 590.571 79.8196C593.384 79.8196 595.811 80.4233 597.852 81.6307C599.904 82.826 601.486 84.5043 602.597 86.6655C603.708 88.8146 604.263 91.326 604.263 94.1996C604.263 97.049 603.708 99.5543 602.597 101.716C601.486 103.865 599.904 105.543 597.852 106.75C595.811 107.946 593.384 108.543 590.571 108.543ZM590.607 102.567C591.887 102.567 592.956 102.205 593.813 101.48C594.67 100.744 595.316 99.7415 595.751 98.4737C596.198 97.206 596.421 95.7631 596.421 94.1452C596.421 92.5273 596.198 91.0845 595.751 89.8168C595.316 88.549 594.67 87.5469 593.813 86.8104C592.956 86.0739 591.887 85.7056 590.607 85.7056C589.316 85.7056 588.229 86.0739 587.347 86.8104C586.478 87.5469 585.82 88.549 585.373 89.8168C584.939 91.0845 584.721 92.5273 584.721 94.1452C584.721 95.7631 584.939 97.206 585.373 98.4737C585.82 99.7415 586.478 100.744 587.347 101.48C588.229 102.205 589.316 102.567 590.607 102.567ZM614.731 80.1818L619.838 89.9073L625.072 80.1818H632.987L624.927 94.0909L633.204 108H625.326L619.838 98.3832L614.441 108H606.472L614.731 94.0909L606.762 80.1818H614.731ZM499.272 150.114L492.209 150.549C492.088 149.945 491.829 149.402 491.43 148.919C491.032 148.424 490.507 148.032 489.855 147.742C489.215 147.44 488.448 147.289 487.555 147.289C486.359 147.289 485.351 147.543 484.53 148.05C483.709 148.545 483.299 149.209 483.299 150.042C483.299 150.706 483.564 151.267 484.096 151.726C484.627 152.185 485.538 152.553 486.83 152.831L491.865 153.845C494.57 154.401 496.586 155.294 497.914 156.526C499.242 157.757 499.906 159.375 499.906 161.379C499.906 163.202 499.369 164.802 498.294 166.179C497.232 167.555 495.771 168.63 493.912 169.402C492.064 170.163 489.933 170.543 487.519 170.543C483.836 170.543 480.902 169.777 478.717 168.243C476.543 166.698 475.27 164.597 474.895 161.941L482.484 161.542C482.713 162.665 483.268 163.522 484.15 164.114C485.031 164.694 486.16 164.983 487.537 164.983C488.889 164.983 489.976 164.724 490.797 164.205C491.63 163.673 492.052 162.991 492.064 162.158C492.052 161.458 491.756 160.884 491.177 160.438C490.597 159.979 489.704 159.629 488.496 159.387L483.679 158.427C480.962 157.884 478.94 156.942 477.612 155.602C476.296 154.262 475.638 152.553 475.638 150.477C475.638 148.69 476.121 147.15 477.087 145.858C478.065 144.566 479.435 143.57 481.198 142.87C482.973 142.17 485.049 141.82 487.428 141.82C490.941 141.82 493.706 142.562 495.723 144.047C497.751 145.532 498.934 147.555 499.272 150.114ZM519.561 142.182V147.977H502.809V142.182H519.561ZM506.612 135.517H514.327V161.452C514.327 162.164 514.436 162.719 514.653 163.118C514.87 163.504 515.172 163.776 515.559 163.933C515.957 164.09 516.416 164.168 516.935 164.168C517.297 164.168 517.659 164.138 518.022 164.078C518.384 164.005 518.662 163.951 518.855 163.915L520.068 169.656C519.682 169.777 519.138 169.915 518.438 170.072C517.738 170.241 516.887 170.344 515.885 170.38C514.025 170.453 512.395 170.205 510.995 169.638C509.606 169.07 508.526 168.189 507.753 166.994C506.98 165.798 506.6 164.289 506.612 162.466V135.517ZM542.426 158.156V142.182H550.141V170H542.734V164.947H542.444C541.816 166.577 540.772 167.887 539.311 168.877C537.862 169.867 536.093 170.362 534.004 170.362C532.145 170.362 530.509 169.94 529.096 169.094C527.684 168.249 526.579 167.048 525.782 165.49C524.997 163.933 524.599 162.067 524.587 159.894V142.182H532.302V158.518C532.314 160.16 532.755 161.458 533.624 162.412C534.493 163.365 535.659 163.842 537.119 163.842C538.049 163.842 538.918 163.631 539.727 163.208C540.536 162.774 541.188 162.134 541.683 161.289C542.19 160.444 542.438 159.399 542.426 158.156ZM566.563 170.453C564.45 170.453 562.536 169.909 560.822 168.823C559.12 167.724 557.767 166.112 556.765 163.987C555.775 161.85 555.28 159.23 555.28 156.127C555.28 152.94 555.793 150.289 556.819 148.176C557.846 146.051 559.21 144.464 560.912 143.413C562.627 142.351 564.504 141.82 566.545 141.82C568.102 141.82 569.4 142.085 570.439 142.616C571.489 143.136 572.334 143.788 572.974 144.572C573.626 145.345 574.121 146.106 574.459 146.854H574.695V132.909H582.392V170H574.785V165.545H574.459C574.097 166.317 573.584 167.084 572.92 167.845C572.268 168.593 571.417 169.215 570.366 169.71C569.328 170.205 568.06 170.453 566.563 170.453ZM569.008 164.313C570.252 164.313 571.302 163.975 572.159 163.299C573.029 162.611 573.693 161.651 574.151 160.419C574.622 159.188 574.858 157.745 574.858 156.091C574.858 154.437 574.628 153 574.17 151.781C573.711 150.561 573.047 149.619 572.177 148.955C571.308 148.291 570.252 147.959 569.008 147.959C567.74 147.959 566.672 148.303 565.802 148.991C564.933 149.68 564.275 150.634 563.828 151.853C563.382 153.072 563.158 154.485 563.158 156.091C563.158 157.709 563.382 159.14 563.828 160.383C564.287 161.615 564.945 162.581 565.802 163.281C566.672 163.969 567.74 164.313 569.008 164.313ZM588.735 170V142.182H596.45V170H588.735ZM592.611 138.596C591.464 138.596 590.48 138.216 589.659 137.455C588.85 136.682 588.445 135.759 588.445 134.684C588.445 133.621 588.85 132.71 589.659 131.949C590.48 131.176 591.464 130.79 592.611 130.79C593.758 130.79 594.736 131.176 595.545 131.949C596.366 132.71 596.776 133.621 596.776 134.684C596.776 135.759 596.366 136.682 595.545 137.455C594.736 138.216 593.758 138.596 592.611 138.596ZM615.2 170.543C612.386 170.543 609.954 169.946 607.901 168.75C605.86 167.543 604.285 165.865 603.174 163.716C602.063 161.554 601.508 159.049 601.508 156.2C601.508 153.326 602.063 150.815 603.174 148.665C604.285 146.504 605.86 144.826 607.901 143.631C609.954 142.423 612.386 141.82 615.2 141.82C618.013 141.82 620.44 142.423 622.48 143.631C624.533 144.826 626.114 146.504 627.225 148.665C628.336 150.815 628.891 153.326 628.891 156.2C628.891 159.049 628.336 161.554 627.225 163.716C626.114 165.865 624.533 167.543 622.48 168.75C620.44 169.946 618.013 170.543 615.2 170.543ZM615.236 164.567C616.516 164.567 617.584 164.205 618.441 163.48C619.299 162.744 619.945 161.741 620.379 160.474C620.826 159.206 621.049 157.763 621.049 156.145C621.049 154.527 620.826 153.085 620.379 151.817C619.945 150.549 619.299 149.547 618.441 148.81C617.584 148.074 616.516 147.706 615.236 147.706C613.944 147.706 612.857 148.074 611.976 148.81C611.107 149.547 610.449 150.549 610.002 151.817C609.567 153.085 609.35 154.527 609.35 156.145C609.35 157.763 609.567 159.206 610.002 160.474C610.449 161.741 611.107 162.744 611.976 163.48C612.857 164.205 613.944 164.567 615.236 164.567ZM642.293 164.929L642.094 166.921C641.937 168.515 641.635 170.103 641.189 171.684C640.754 173.278 640.295 174.721 639.812 176.013C639.341 177.305 638.961 178.319 638.671 179.055H633.673C633.854 178.343 634.101 177.347 634.415 176.067C634.729 174.799 635.025 173.375 635.303 171.793C635.58 170.211 635.755 168.599 635.828 166.957L635.918 164.929H642.293ZM639.07 150.984C637.874 150.984 636.848 150.561 635.991 149.716C635.146 148.871 634.723 147.844 634.723 146.637C634.723 145.454 635.146 144.446 635.991 143.613C636.848 142.767 637.874 142.345 639.07 142.345C640.229 142.345 641.243 142.767 642.112 143.613C642.982 144.446 643.416 145.454 643.416 146.637C643.416 147.446 643.211 148.183 642.8 148.847C642.402 149.499 641.877 150.018 641.225 150.404C640.573 150.79 639.854 150.984 639.07 150.984Z" fill="white"></path>
</svg>