<svg width="240" height="240" viewBox="0 0 240 240" fill="none" xmlns="http://www.w3.org/2000/svg">
<rect width="240" height="240" fill="white"></rect>
<path d="M16.0696 99.995L16.0877 90.7404H17.2106L26.1211 80.1818H34.9773L23.006 94.1634H21.1768L16.0696 99.995ZM9.07884 108V70.9091H16.794V108H9.07884ZM26.4652 108L18.2791 95.8839L23.4226 90.4325L35.5025 108H26.4652ZM38.7624 108V80.1818H46.4776V108H38.7624ZM42.6381 76.5959C41.4911 76.5959 40.5071 76.2156 39.6861 75.4549C38.8771 74.6822 38.4727 73.7585 38.4727 72.6839C38.4727 71.6214 38.8771 70.7099 39.6861 69.9492C40.5071 69.1765 41.4911 68.7901 42.6381 68.7901C43.7852 68.7901 44.7631 69.1765 45.5721 69.9492C46.3931 70.7099 46.8036 71.6214 46.8036 72.6839C46.8036 73.7585 46.3931 74.6822 45.5721 75.4549C44.7631 76.2156 43.7852 76.5959 42.6381 76.5959ZM52.6579 108V80.1818H60.0109V85.0898H60.3369C60.9165 83.4599 61.8824 82.174 63.2346 81.2322C64.5869 80.2905 66.2048 79.8196 68.0883 79.8196C69.996 79.8196 71.6199 80.2965 72.9601 81.2504C74.3003 82.1921 75.1938 83.4719 75.6405 85.0898H75.9303C76.4978 83.4961 77.5241 82.2223 79.0091 81.2685C80.5063 80.3026 82.2751 79.8196 84.3156 79.8196C86.9115 79.8196 89.0184 80.6467 90.6363 82.3008C92.2662 83.9428 93.0812 86.2731 93.0812 89.2915V108H85.3841V90.8129C85.3841 89.2674 84.9736 88.1083 84.1526 87.3356C83.3316 86.5629 82.3053 86.1765 81.0738 86.1765C79.6732 86.1765 78.5805 86.6232 77.7957 87.5167C77.0109 88.3981 76.6185 89.5632 76.6185 91.0121V108H69.1388V90.6499C69.1388 89.2855 68.7464 88.1989 67.9616 87.3899C67.1888 86.581 66.1686 86.1765 64.9008 86.1765C64.0436 86.1765 63.2709 86.3938 62.5827 86.8285C61.9065 87.2511 61.3692 87.8487 60.9708 88.6214C60.5724 89.3821 60.3731 90.2756 60.3731 91.3018V108H52.6579ZM111.744 108.543C108.931 108.543 106.498 107.946 104.446 106.75C102.405 105.543 100.83 103.865 99.7188 101.716C98.608 99.5543 98.0526 97.049 98.0526 94.1996C98.0526 91.326 98.608 88.8146 99.7188 86.6655C100.83 84.5043 102.405 82.826 104.446 81.6307C106.498 80.4233 108.931 79.8196 111.744 79.8196C114.558 79.8196 116.984 80.4233 119.025 81.6307C121.078 82.826 122.659 84.5043 123.77 86.6655C124.881 88.8146 125.436 91.326 125.436 94.1996C125.436 97.049 124.881 99.5543 123.77 101.716C122.659 103.865 121.078 105.543 119.025 106.75C116.984 107.946 114.558 108.543 111.744 108.543ZM111.781 102.567C113.06 102.567 114.129 102.205 114.986 101.48C115.843 100.744 116.489 99.7415 116.924 98.4737C117.371 97.206 117.594 95.7631 117.594 94.1452C117.594 92.5273 117.371 91.0845 116.924 89.8168C116.489 88.549 115.843 87.5469 114.986 86.8104C114.129 86.0739 113.06 85.7056 111.781 85.7056C110.489 85.7056 109.402 86.0739 108.521 86.8104C107.651 87.5469 106.993 88.549 106.547 89.8168C106.112 91.0845 105.895 92.5273 105.895 94.1452C105.895 95.7631 106.112 97.206 106.547 98.4737C106.993 99.7415 107.651 100.744 108.521 101.48C109.402 102.205 110.489 102.567 111.781 102.567ZM135.904 80.1818L141.011 89.9073L146.245 80.1818H154.16L146.101 94.0909L154.377 108H146.499L141.011 98.3832L135.614 108H127.646L135.904 94.0909L127.935 80.1818H135.904ZM32.2244 150.114L25.1612 150.549C25.0405 149.945 24.7809 149.402 24.3825 148.919C23.984 148.424 23.4588 148.032 22.8068 147.742C22.1669 147.44 21.4002 147.289 20.5067 147.289C19.3114 147.289 18.3033 147.543 17.4822 148.05C16.6612 148.545 16.2507 149.209 16.2507 150.042C16.2507 150.706 16.5163 151.267 17.0476 151.726C17.5788 152.185 18.4904 152.553 19.7823 152.831L24.8171 153.845C27.5217 154.401 29.538 155.294 30.8661 156.526C32.1942 157.757 32.8583 159.375 32.8583 161.379C32.8583 163.202 32.321 164.802 31.2465 166.179C30.184 167.555 28.723 168.63 26.8636 169.402C25.0163 170.163 22.8853 170.543 20.4705 170.543C16.788 170.543 13.854 169.777 11.6687 168.243C9.49538 166.698 8.22159 164.597 7.8473 161.941L15.4357 161.542C15.6651 162.665 16.2205 163.522 17.1019 164.114C17.9833 164.694 19.1122 164.983 20.4886 164.983C21.8409 164.983 22.9276 164.724 23.7486 164.205C24.5817 163.673 25.0043 162.991 25.0163 162.158C25.0043 161.458 24.7085 160.884 24.1289 160.438C23.5494 159.979 22.6559 159.629 21.4485 159.387L16.631 158.427C13.9144 157.884 11.892 156.942 10.5639 155.602C9.24787 154.262 8.58984 152.553 8.58984 150.477C8.58984 148.69 9.0728 147.15 10.0387 145.858C11.0167 144.566 12.3871 143.57 14.1499 142.87C15.9247 142.17 18.0014 141.82 20.38 141.82C23.8935 141.82 26.6584 142.562 28.6747 144.047C30.7031 145.532 31.8864 147.555 32.2244 150.114ZM52.5131 142.182V147.977H35.7606V142.182H52.5131ZM39.5638 135.517H47.279V161.452C47.279 162.164 47.3877 162.719 47.605 163.118C47.8224 163.504 48.1242 163.776 48.5106 163.933C48.909 164.09 49.3678 164.168 49.887 164.168C50.2492 164.168 50.6114 164.138 50.9736 164.078C51.3358 164.005 51.6135 163.951 51.8067 163.915L53.0202 169.656C52.6338 169.777 52.0905 169.915 51.3902 170.072C50.6899 170.241 49.8387 170.344 48.8366 170.38C46.9772 170.453 45.3472 170.205 43.9466 169.638C42.5582 169.07 41.4775 168.189 40.7048 166.994C39.9321 165.798 39.5518 164.289 39.5638 162.466V135.517ZM75.3779 158.156V142.182H83.0931V170H75.6858V164.947H75.396C74.7682 166.577 73.7238 167.887 72.2629 168.877C70.814 169.867 69.0452 170.362 66.9564 170.362C65.097 170.362 63.461 169.94 62.0484 169.094C60.6357 168.249 59.531 167.048 58.7341 165.49C57.9493 163.933 57.5509 162.067 57.5388 159.894V142.182H65.254V158.518C65.2661 160.16 65.7068 161.458 66.5761 162.412C67.4454 163.365 68.6105 163.842 70.0715 163.842C71.0012 163.842 71.8705 163.631 72.6794 163.208C73.4884 162.774 74.1404 162.134 74.6354 161.289C75.1425 160.444 75.39 159.399 75.3779 158.156ZM99.5151 170.453C97.4022 170.453 95.4885 169.909 93.774 168.823C92.0716 167.724 90.7193 166.112 89.7172 163.987C88.7271 161.85 88.2321 159.23 88.2321 156.127C88.2321 152.94 88.7452 150.289 89.7715 148.176C90.7978 146.051 92.1621 144.464 93.8645 143.413C95.579 142.351 97.4565 141.82 99.497 141.82C101.055 141.82 102.352 142.085 103.391 142.616C104.441 143.136 105.286 143.788 105.926 144.572C106.578 145.345 107.073 146.106 107.411 146.854H107.647V132.909H115.344V170H107.737V165.545H107.411C107.049 166.317 106.536 167.084 105.872 167.845C105.22 168.593 104.369 169.215 103.318 169.71C102.28 170.205 101.012 170.453 99.5151 170.453ZM101.96 164.313C103.204 164.313 104.254 163.975 105.111 163.299C105.981 162.611 106.645 161.651 107.104 160.419C107.574 159.188 107.81 157.745 107.81 156.091C107.81 154.437 107.58 153 107.122 151.781C106.663 150.561 105.999 149.619 105.129 148.955C104.26 148.291 103.204 147.959 101.96 147.959C100.692 147.959 99.6238 148.303 98.7544 148.991C97.8851 149.68 97.2271 150.634 96.7804 151.853C96.3336 153.072 96.1103 154.485 96.1103 156.091C96.1103 157.709 96.3336 159.14 96.7804 160.383C97.2392 161.615 97.8972 162.581 98.7544 163.281C99.6238 163.969 100.692 164.313 101.96 164.313ZM121.687 170V142.182H129.402V170H121.687ZM125.563 138.596C124.416 138.596 123.432 138.216 122.611 137.455C121.802 136.682 121.397 135.759 121.397 134.684C121.397 133.621 121.802 132.71 122.611 131.949C123.432 131.176 124.416 130.79 125.563 130.79C126.71 130.79 127.688 131.176 128.497 131.949C129.318 132.71 129.728 133.621 129.728 134.684C129.728 135.759 129.318 136.682 128.497 137.455C127.688 138.216 126.71 138.596 125.563 138.596ZM148.152 170.543C145.338 170.543 142.906 169.946 140.853 168.75C138.813 167.543 137.237 165.865 136.126 163.716C135.015 161.554 134.46 159.049 134.46 156.2C134.46 153.326 135.015 150.815 136.126 148.665C137.237 146.504 138.813 144.826 140.853 143.631C142.906 142.423 145.338 141.82 148.152 141.82C150.965 141.82 153.392 142.423 155.432 143.631C157.485 144.826 159.066 146.504 160.177 148.665C161.288 150.815 161.843 153.326 161.843 156.2C161.843 159.049 161.288 161.554 160.177 163.716C159.066 165.865 157.485 167.543 155.432 168.75C153.392 169.946 150.965 170.543 148.152 170.543ZM148.188 164.567C149.468 164.567 150.536 164.205 151.393 163.48C152.251 162.744 152.897 161.741 153.331 160.474C153.778 159.206 154.001 157.763 154.001 156.145C154.001 154.527 153.778 153.085 153.331 151.817C152.897 150.549 152.251 149.547 151.393 148.81C150.536 148.074 149.468 147.706 148.188 147.706C146.896 147.706 145.809 148.074 144.928 148.81C144.059 149.547 143.401 150.549 142.954 151.817C142.519 153.085 142.302 154.527 142.302 156.145C142.302 157.763 142.519 159.206 142.954 160.474C143.401 161.741 144.059 162.744 144.928 163.48C145.809 164.205 146.896 164.567 148.188 164.567ZM175.245 164.929L175.046 166.921C174.889 168.515 174.587 170.103 174.141 171.684C173.706 173.278 173.247 174.721 172.764 176.013C172.293 177.305 171.913 178.319 171.623 179.055H166.625C166.806 178.343 167.053 177.347 167.367 176.067C167.681 174.799 167.977 173.375 168.255 171.793C168.532 170.211 168.707 168.599 168.78 166.957L168.87 164.929H175.245ZM172.022 150.984C170.826 150.984 169.8 150.561 168.943 149.716C168.098 148.871 167.675 147.844 167.675 146.637C167.675 145.454 168.098 144.446 168.943 143.613C169.8 142.767 170.826 142.345 172.022 142.345C173.181 142.345 174.195 142.767 175.064 143.613C175.934 144.446 176.368 145.454 176.368 146.637C176.368 147.446 176.163 148.183 175.752 148.847C175.354 149.499 174.829 150.018 174.177 150.404C173.525 150.79 172.806 150.984 172.022 150.984Z" fill="black"></path>
</svg>